<svg id="Grupo_2" data-name="Grupo 2" xmlns="http://www.w3.org/2000/svg" width="1920" height="1920" viewBox="0 0 1920 1920">
  <metadata><?xpacket begin="﻿" id="W5M0MpCehiHzreSzNTczkc9d"?>
<x:xmpmeta xmlns:x="adobe:ns:meta/" x:xmptk="Adobe XMP Core 5.6-c142 79.160924, 2017/07/13-01:06:39        ">
   <rdf:RDF xmlns:rdf="http://www.w3.org/1999/02/22-rdf-syntax-ns#">
      <rdf:Description rdf:about=""/>
   </rdf:RDF>
</x:xmpmeta>
                                                                                                    
                                                                                                    
                                                                                                    
                                                                                                    
                                                                                                    
                                                                                                    
                                                                                                    
                                                                                                    
                                                                                                    
                                                                                                    
                                                                                                    
                                                                                                    
                                                                                                    
                                                                                                    
                                                                                                    
                                                                                                    
                                                                                                    
                                                                                                    
                                                                                                    
                                                                                                    
                           
<?xpacket end="w"?></metadata>
<defs>
    <style>
      .cls-1 {
        fill: #f0dc4e;
      }

      .cls-1, .cls-2 {
        fill-rule: evenodd;
      }

      .cls-2 {
        fill: #2e302c;
      }
    </style>
  </defs>
  <path id="Forma_3_copia" data-name="Forma 3 copia" class="cls-1" d="M267.536,1724.25L956.237,1920l686.823-190.11L1803,2H117Z"/>
  <path id="Forma_6" data-name="Forma 6" class="cls-2" d="M306,1179.66l154.456-91.82s35.06,102.24,122.238,96.56c93.846-2.33,94.758-98.46,94.758-98.46V433.7H862.231V1106.77s-9.476,239.5-253,241.4S306,1179.66,306,1179.66Z"/>
  <path id="Forma_7" data-name="Forma 7" class="cls-2" d="M966.465,1159.78l151.615-85.2s46.43,93.72,144.03,108.87c109.16,16.94,201.96-59.23,148.77-143.89-63.99-60.349-215.66-110.265-259.64-137.266-17.05-12.307-207.071-103.345-101.39-351.207,98.66-179.809,345.13-124.382,385.67-97.5,81.49,40.707,120.34,119.278,120.34,119.278l-142.14,93.718s-38.56-68.1-90.02-78.572c-91.81-27.4-169.4,78.209-86.23,146.731,57.08,47.562,190.03,86.9,262.48,136.317,53.62,32.885,191.42,211.106,47.38,389.076-186.67,167.55-428.1,51.96-450.1,38.81C1009.36,1246.43,966.465,1159.78,966.465,1159.78Z"/>
</svg>
